<?xml version="1.0" standalone="no"?>
<!DOCTYPE svg PUBLIC "-//W3C//DTD SVG 20010904//EN"
 "http://www.w3.org/TR/2001/REC-SVG-20010904/DTD/svg10.dtd">
<svg version="1.0" xmlns="http://www.w3.org/2000/svg"
 width="1024.000000pt" height="578.000000pt" viewBox="0 0 1024.000000 578.000000"
 preserveAspectRatio="xMidYMid meet">

<g transform="translate(0.000000,578.000000) scale(0.100000,-0.100000)"
fill="#000000" stroke="none">
<path d="M0 2890 l0 -2890 5120 0 5120 0 0 2890 0 2890 -5120 0 -5120 0 0
-2890z m1148 414 c28 -32 28 -61 0 -91 -42 -45 -107 -24 -123 39 -6 22 -1 33
24 58 35 36 62 34 99 -6z m262 6 c0 -13 -7 -20 -20 -20 -13 0 -20 7 -20 20 0
13 7 20 20 20 13 0 20 -7 20 -20z m-448 -47 c37 -33 11 -103 -38 -103 -25 0
-64 35 -64 57 0 8 7 25 16 38 19 29 59 33 86 8z m350 0 c25 -23 23 -68 -4 -87
-30 -21 -47 -20 -75 6 -28 27 -29 48 -3 76 25 26 57 28 82 5z m206 5 c19 -19
14 -56 -9 -68 -41 -22 -82 46 -41 69 23 14 36 13 50 -1z m-692 -119 c24 -27 8
-54 -32 -54 -23 0 -30 5 -32 23 -4 25 13 52 33 52 6 0 20 -9 31 -21z m591 13
c12 -7 16 -25 14 -54 -1 -13 -10 -18 -31 -18 -23 0 -31 5 -36 25 -10 39 21 67
53 47z m207 -8 c34 -33 8 -104 -37 -104 -29 0 -57 29 -57 58 0 52 59 81 94 46z
m-527 -26 c-3 -8 -6 -5 -6 6 -1 11 2 17 5 13 3 -3 4 -12 1 -19z m-71 -13 c3
-8 3 -19 0 -24 -10 -16 -36 -1 -36 20 0 22 28 26 36 4z m1205 -477 c-2 -65 -7
-115 -12 -112 -11 6 -12 588 -1 598 9 10 18 -327 13 -486z m760 468 c95 -45
155 -118 179 -218 51 -218 -194 -434 -397 -350 -48 19 -63 49 -15 31 45 -18
184 -14 223 6 92 48 134 100 160 203 10 41 10 59 1 85 -7 19 -12 41 -12 51 0
39 -74 126 -135 159 -32 18 -57 22 -130 22 -105 0 -137 -13 -203 -83 -42 -45
-59 -50 -48 -14 10 31 60 75 118 104 74 38 182 39 259 4z m323 1 c8 -12 7 -22
-2 -37 -9 -14 -12 -90 -12 -279 0 -163 -4 -262 -10 -266 -5 -3 -10 2 -10 12 0
10 -2 137 -5 283 -2 146 -2 275 2 288 6 25 21 25 37 -1z m310 7 c8 -21 8 -558
0 -579 -17 -44 -24 29 -24 270 l0 260 -30 -47 c-16 -25 -43 -75 -60 -110 -40
-81 -58 -105 -69 -92 -5 5 -26 41 -46 79 -20 39 -41 74 -46 79 -12 13 -12 56
1 56 5 0 23 -29 40 -64 34 -70 70 -112 70 -83 0 10 5 17 10 17 6 0 10 5 10 10
0 20 115 220 126 220 7 0 15 -7 18 -16z m296 6 c0 -5 -37 -10 -82 -12 l-83 -3
-3 -170 c-2 -167 -15 -234 -25 -138 -7 66 -8 299 -1 318 5 12 26 15 100 15 53
0 94 -4 94 -10z m303 -4 c25 -20 22 -40 -5 -31 -87 28 -132 12 -144 -51 -9
-50 3 -72 91 -164 97 -101 115 -132 115 -200 0 -54 -20 -71 -21 -17 -1 55 -31
104 -121 195 -99 101 -119 145 -94 205 23 57 53 77 110 77 28 0 59 -7 69 -14z
m202 -6 c10 -30 -5 -47 -22 -25 -7 11 -13 25 -13 32 0 21 28 15 35 -7z m265
-8 c0 -15 -4 -32 -8 -37 -4 -6 -14 -28 -21 -50 -7 -22 -17 -50 -22 -62 -5 -13
-13 -33 -18 -45 -5 -13 -19 -48 -31 -78 -18 -43 -24 -82 -27 -175 -3 -66 -9
-124 -14 -130 -19 -20 -29 20 -29 117 0 92 2 103 56 250 30 84 59 161 65 170
5 10 9 24 9 31 0 14 19 37 32 37 4 0 8 -13 8 -28z m912 9 c60 -26 121 -82 109
-100 -7 -11 -12 -10 -27 8 -53 63 -174 95 -272 71 -148 -35 -230 -224 -163
-376 33 -76 111 -143 184 -159 29 -6 38 -35 10 -35 -24 0 -102 39 -145 72 -23
18 -49 54 -68 93 -26 55 -30 74 -30 150 0 79 3 93 30 139 35 62 79 104 140
133 60 29 170 31 232 4z m599 9 c10 -6 19 -20 19 -32 0 -16 -3 -18 -14 -9 -7
6 -34 14 -59 17 -40 6 -48 3 -71 -19 -28 -28 -34 -73 -15 -110 7 -12 52 -63
100 -114 49 -51 89 -100 89 -111 0 -10 5 -23 11 -29 17 -17 7 -87 -13 -91 -15
-3 -18 4 -18 38 0 62 -21 98 -104 179 -88 86 -106 116 -106 181 0 38 5 52 31
78 27 27 38 32 81 32 27 0 58 -5 69 -10z m568 -16 c112 -59 162 -137 169 -264
5 -99 -5 -129 -66 -207 -77 -96 -231 -141 -336 -98 -42 18 -52 51 -10 35 44
-17 192 -12 227 7 117 64 175 182 151 304 -15 74 -54 131 -123 176 -55 37 -58
38 -146 38 -105 -1 -132 -12 -206 -85 -36 -36 -51 -45 -55 -35 -7 17 10 42 56
82 67 58 107 72 202 73 74 0 93 -4 137 -26z m301 -205 c0 -198 -6 -250 -24
-203 -8 20 -8 398 0 418 17 45 24 -16 24 -215z m330 8 c0 -117 5 -228 10 -248
12 -44 64 -99 93 -99 18 0 39 -24 30 -33 -10 -11 -53 -8 -53 3 0 6 -6 10 -14
10 -22 0 -74 65 -85 107 -12 41 -15 465 -5 476 19 19 24 -24 24 -216z m648
211 c-3 -7 -17 -14 -31 -16 l-27 -3 -2 -287 c-4 -376 -20 -381 -30 -11 -4 150
-9 278 -12 285 -3 8 -26 14 -57 16 -31 2 -54 8 -57 16 -3 9 23 12 108 12 85 0
111 -3 108 -12z m62 -4 c0 -9 -7 -14 -17 -12 -25 5 -28 28 -4 28 12 0 21 -6
21 -16z m627 -9 c73 -35 118 -78 150 -143 24 -49 27 -66 25 -140 -2 -60 -8
-96 -23 -128 -26 -53 -117 -140 -159 -149 -16 -4 -32 -11 -35 -16 -11 -16
-151 -10 -190 8 -36 17 -43 41 -9 34 10 -2 58 -6 105 -8 71 -4 93 -1 120 14
90 49 137 106 159 195 22 87 -17 200 -90 262 -61 51 -89 60 -180 60 -98 0
-144 -18 -210 -84 -45 -45 -50 -47 -50 -22 0 26 77 97 130 121 69 30 191 29
257 -4z m328 -47 c33 -63 38 -88 15 -88 -5 0 -16 12 -24 28 -14 25 -15 6 -16
-205 0 -228 -3 -268 -21 -257 -10 6 -13 577 -2 587 8 9 6 13 48 -65z m539 57
c31 -23 6 -42 -33 -26 -31 13 -85 7 -108 -11 -8 -6 -13 -33 -13 -65 l0 -54 81
-83 c44 -45 89 -97 100 -114 25 -42 34 -104 20 -131 -17 -32 -31 -16 -31 35 0
61 -16 87 -100 169 -99 97 -113 123 -108 190 6 76 40 105 118 105 33 -1 63 -7
74 -15z m-4504 -290 c0 -162 -4 -295 -9 -295 -13 0 -71 115 -71 141 1 22 2 23
14 7 32 -43 36 -22 36 205 0 213 2 237 22 237 4 0 8 -133 8 -295z m2627 40
c-3 -245 -5 -255 -57 -302 -32 -29 -76 -47 -96 -39 -13 5 -14 9 -4 21 7 8 21
15 32 15 11 0 37 17 58 38 34 34 38 43 44 110 4 40 7 139 6 220 -2 200 -2 200
10 182 6 -9 9 -104 7 -245z m512 -28 c0 -269 -9 -370 -22 -257 -9 71 -9 525
-1 533 19 18 22 -26 23 -276z m1069 -11 c3 -316 0 -326 -50 -225 -32 62 -34
79 -13 79 8 0 15 -8 15 -17 0 -15 2 -16 10 -3 6 9 10 111 10 238 0 174 3 223
13 220 9 -4 13 -73 15 -292z m-4458 232 c30 -53 38 -88 21 -88 -5 0 -12 8 -15
17 -18 45 -26 -27 -26 -234 0 -194 -2 -222 -15 -217 -13 5 -15 47 -15 290 0
179 4 284 10 284 5 0 23 -24 40 -52z m-3910 -18 c0 -33 -27 -47 -60 -30 -26
14 -26 45 2 64 29 21 58 4 58 -34z m536 -26 c-5 -13 -10 -14 -18 -6 -6 6 -8
18 -4 28 5 13 10 14 18 6 6 -6 8 -18 4 -28z m-736 13 c0 -8 -3 -17 -7 -20 -9
-9 -34 13 -27 24 8 14 34 11 34 -4z m922 -31 c26 -19 40 -64 28 -86 -30 -56
-76 -65 -117 -24 -20 20 -24 31 -19 57 12 60 65 86 108 53z m-828 -27 c44 -21
44 -88 -1 -108 -56 -26 -100 53 -56 101 19 21 24 22 57 7z m1666 -220 c0 -172
-3 -220 -12 -217 -9 3 -15 36 -18 99 l-5 94 -108 3 c-80 2 -107 6 -104 15 2 8
39 14 108 17 l104 5 3 90 c3 98 6 115 22 115 6 0 10 -76 10 -221z m-1000 191
c0 -5 -4 -10 -10 -10 -5 0 -10 5 -10 10 0 6 5 10 10 10 6 0 10 -4 10 -10z
m129 -152 c23 -40 5 -82 -35 -86 -56 -6 -82 47 -48 96 22 31 63 26 83 -10z
m-809 2 c24 -24 26 -77 3 -102 -10 -11 -30 -18 -54 -18 -32 0 -41 5 -54 30
-21 40 -19 57 10 85 29 30 68 32 95 5z m100 -59 c0 -6 -4 -13 -10 -16 -5 -3
-10 1 -10 9 0 9 5 16 10 16 6 0 10 -4 10 -9z m2832 -91 l-4 -90 92 0 c69 0 91
-3 88 -12 -3 -9 -35 -14 -100 -16 l-96 -3 -7 63 c-3 35 -4 74 -1 88 2 14 5 33
5 43 1 9 7 17 14 17 10 0 12 -20 9 -90z m-2806 19 c10 -17 -13 -36 -27 -22
-12 12 -4 33 11 33 5 0 12 -5 16 -11z m577 -7 c15 -16 15 -20 1 -40 -30 -44
-88 -15 -66 33 14 29 42 32 65 7z m165 1 c-5 -25 -28 -28 -28 -4 0 12 6 21 16
21 9 0 14 -7 12 -17z m4015 -36 c-40 -47 -133 -100 -167 -95 -35 5 -25 32 14
38 42 7 73 23 119 61 39 32 62 28 34 -4z m1367 -34 c0 -21 5 -23 68 -24 120
-2 127 -3 130 -21 3 -16 -7 -18 -107 -18 -102 0 -110 1 -116 21 -10 30 4 97
16 78 5 -8 9 -24 9 -36z m-6214 11 c36 -54 -29 -122 -76 -79 -22 20 -27 74 -8
93 21 21 66 14 84 -14z m175 -28 c12 -25 -2 -66 -22 -66 -43 0 -63 45 -33 74
22 23 43 20 55 -8z m379 -1 c0 -16 -27 -27 -36 -14 -3 5 -3 16 0 24 6 17 36 9
36 -10z m218 13 c21 -21 14 -57 -12 -70 -20 -8 -28 -7 -40 5 -19 19 -20 31 -4
57 14 23 38 26 56 8z m2626 3 c12 -19 -54 -61 -95 -61 -53 0 -53 26 0 35 22 3
47 13 58 20 21 17 30 18 37 6z m1976 -5 c0 -26 -50 -56 -92 -56 -32 0 -39 3
-36 18 2 12 16 19 46 23 23 3 48 11 54 17 16 16 28 15 28 -2z m3395 5 c3 -6
-7 -21 -22 -35 -20 -19 -39 -26 -69 -26 -45 0 -55 5 -47 26 3 9 20 14 42 14
21 0 46 7 57 15 23 17 31 18 39 6z m-8463 -88 c35 -31 12 -103 -34 -103 -23 0
-68 43 -68 65 0 22 37 55 62 55 12 0 30 -7 40 -17z m361 -15 c19 -25 19 -28 4
-52 -22 -33 -52 -41 -82 -22 -17 11 -25 26 -25 46 0 61 65 79 103 28z m-179
-9 c52 -41 23 -129 -44 -129 -65 0 -93 80 -44 125 33 30 53 31 88 4z m-409
-34 c0 -26 -3 -30 -29 -30 -36 0 -56 26 -36 50 8 9 24 15 39 13 22 -2 26 -8
26 -33z m92 -79 c-9 -23 -37 -20 -37 3 0 21 20 33 34 20 5 -4 6 -15 3 -23z
m69 -33 c-10 -10 -19 5 -10 18 6 11 8 11 12 0 2 -7 1 -15 -2 -18z"/>
</g>
</svg>
