<svg aria-hidden="true" style="position: absolute; width: 0; height: 0; overflow: hidden;" version="1.1" xmlns="http://www.w3.org/2000/svg" xmlns:xlink="http://www.w3.org/1999/xlink">
<defs>
<symbol id="icon-calendar" viewBox="0 0 32 32">
<path d="M28.25 2.5h-1.5v-2.5h-2.5v2.5h-16.5v-2.5h-2.5v2.5h-1.5c-2.068 0-3.75 1.682-3.75 3.75v22c0 2.068 1.682 3.75 3.75 3.75h24.5c2.068 0 3.75-1.682 3.75-3.75v-22c0-2.068-1.682-3.75-3.75-3.75zM29.5 28.25c0 0.689-0.561 1.25-1.25 1.25h-24.5c-0.689 0-1.25-0.561-1.25-1.25v-16.5h27v16.5zM29.5 9.25h-27v-3c0-0.689 0.561-1.25 1.25-1.25h1.5v2.5h2.5v-2.5h16.5v2.5h2.5v-2.5h1.5c0.689 0 1.25 0.561 1.25 1.25v3z"></path>
<path d="M7.25 14.375h-2.5v2.5h2.5v-2.5z"></path>
<path d="M12.25 14.375h-2.5v2.5h2.5v-2.5z"></path>
<path d="M17.25 14.375h-2.5v2.5h2.5v-2.5z"></path>
<path d="M22.25 14.375h-2.5v2.5h2.5v-2.5z"></path>
<path d="M27.25 14.375h-2.5v2.5h2.5v-2.5z"></path>
<path d="M7.25 19.375h-2.5v2.5h2.5v-2.5z"></path>
<path d="M12.25 19.375h-2.5v2.5h2.5v-2.5z"></path>
<path d="M17.25 19.375h-2.5v2.5h2.5v-2.5z"></path>
<path d="M22.25 19.375h-2.5v2.5h2.5v-2.5z"></path>
<path d="M7.25 24.375h-2.5v2.5h2.5v-2.5z"></path>
<path d="M12.25 24.375h-2.5v2.5h2.5v-2.5z"></path>
<path d="M17.25 24.375h-2.5v2.5h2.5v-2.5z"></path>
<path d="M22.25 24.375h-2.5v2.5h2.5v-2.5z"></path>
<path d="M27.25 19.375h-2.5v2.5h2.5v-2.5z"></path>
</symbol>
<symbol id="icon-pointer" viewBox="0 0 32 32">
<path d="M16 0c-6.39 0-11.589 5.199-11.589 11.589 0 7.93 10.371 19.573 10.813 20.065 0.415 0.462 1.139 0.461 1.553 0 0.442-0.492 10.813-12.134 10.813-20.065-0-6.39-5.199-11.589-11.589-11.589zM16 17.42c-3.215 0-5.831-2.616-5.831-5.831s2.616-5.831 5.831-5.831c3.215 0 5.831 2.616 5.831 5.831s-2.616 5.831-5.831 5.831z"></path>
</symbol>
<symbol id="icon-phone" viewBox="0 0 32 32">
<path d="M29.432 21.004c-1.959 0-3.883-0.306-5.706-0.909-0.893-0.305-1.991-0.025-2.537 0.535l-3.598 2.716c-4.173-2.227-6.743-4.797-8.94-8.938l2.636-3.504c0.685-0.684 0.931-1.683 0.636-2.621-0.605-1.832-0.912-3.755-0.912-5.715 0-1.416-1.152-2.568-2.568-2.568h-5.877c-1.416 0-2.568 1.152-2.568 2.568 0 16.229 13.203 29.432 29.432 29.432 1.416 0 2.568-1.152 2.568-2.568v-5.86c-0-1.416-1.152-2.568-2.568-2.568z"></path>
</symbol>
<symbol id="icon-close-modal" viewBox="0 0 32 32">
<path d="M32 3.223l-3.223-3.223-12.777 12.777-12.777-12.777-3.223 3.223 12.777 12.777-12.777 12.777 3.223 3.223 12.777-12.777 12.777 12.777 3.223-3.223-12.777-12.777 12.777-12.777z"></path>
</symbol>
</defs>
</svg>
